<?xml version="1.0" standalone="no"?>
<!DOCTYPE svg PUBLIC "-//W3C//DTD SVG 20010904//EN"
 "http://www.w3.org/TR/2001/REC-SVG-20010904/DTD/svg10.dtd">
<svg version="1.0" xmlns="http://www.w3.org/2000/svg"
 width="550.000000pt" height="550.000000pt" viewBox="0 0 550.000000 550.000000"
 preserveAspectRatio="xMidYMid meet">
<metadata>
Created by potrace 1.14, written by Peter Selinger 2001-2017
</metadata>
<g transform="translate(0.000000,550.000000) scale(0.100000,-0.100000)"
fill="#000000" stroke="none">
<path d="M0 4688 l0 -811 25 23 c27 25 47 82 38 106 -3 8 -2 21 1 29 4 13 12
9 36 -18 17 -19 42 -38 57 -42 26 -6 24 -8 -35 -35 -42 -20 -68 -40 -81 -62
-11 -18 -25 -38 -30 -45 -8 -9 -10 -175 -9 -535 3 -521 3 -523 22 -491 18 30
23 32 89 35 50 2 78 -2 104 -14 20 -10 38 -19 40 -22 11 -10 -35 -65 -63 -75
-18 -7 -44 -25 -57 -40 -13 -16 -39 -34 -59 -40 -19 -6 -45 -22 -57 -35 -20
-22 -21 -31 -19 -171 3 -147 3 -149 26 -155 13 -3 30 -17 39 -31 15 -25 15
-30 0 -62 -24 -49 -21 -88 8 -130 18 -28 21 -38 11 -44 -27 -17 -46 -59 -46
-101 0 -81 51 -132 133 -132 59 0 77 -8 77 -32 0 -11 18 -38 39 -59 21 -22 42
-51 45 -65 15 -60 55 -94 124 -107 19 -4 44 -19 58 -36 14 -17 34 -33 44 -36
14 -4 20 -15 20 -36 0 -34 13 -64 42 -95 23 -25 13 -36 -46 -53 -83 -22 -140
-81 -191 -198 -29 -63 -43 -161 -28 -187 7 -12 5 -32 -5 -63 -14 -41 -14 -51
1 -97 9 -28 21 -67 27 -86 11 -37 74 -113 119 -142 14 -10 44 -18 67 -18 28 0
47 -6 59 -20 10 -11 26 -22 35 -25 15 -5 16 -11 8 -45 -6 -22 -7 -55 -4 -74
14 -72 170 -247 233 -260 16 -4 68 -2 116 3 81 8 92 12 122 41 l34 33 52 -32
c67 -42 173 -63 249 -51 85 14 133 25 156 38 55 29 99 115 88 171 -6 28 30
121 46 121 16 0 90 72 106 103 10 18 14 50 13 86 -2 48 2 64 22 92 19 26 24
48 25 95 2 80 5 84 53 71 70 -19 180 38 216 111 14 30 26 42 41 42 12 0 35 5
53 11 29 10 35 8 85 -31 44 -33 65 -42 109 -47 32 -3 62 -1 75 6 19 10 26 7
56 -23 19 -19 49 -37 65 -41 28 -6 31 -10 31 -46 0 -37 -1 -38 -26 -29 -40 16
-92 1 -128 -35 -38 -38 -49 -78 -35 -128 10 -37 69 -97 94 -97 10 0 15 -11 15
-34 0 -70 80 -142 147 -132 25 3 31 1 26 -10 -3 -8 -19 -14 -42 -14 -119 0
-173 -141 -87 -229 20 -20 36 -41 36 -46 1 -6 9 -20 19 -32 l19 -23 1376 0
1376 0 0 394 0 394 -27 5 c-56 10 -123 -38 -123 -89 0 -17 -8 -23 -40 -28 -26
-4 -50 -17 -72 -40 -49 -49 -70 -53 -106 -16 -17 16 -37 30 -45 30 -8 0 -33
19 -56 42 -41 41 -42 41 -23 62 50 54 56 118 17 164 -28 34 -64 44 -108 31
-35 -10 -32 -11 -41 19 -6 18 -4 22 16 22 13 0 33 6 44 14 17 12 25 12 59 0
49 -17 76 -17 127 -2 38 11 41 10 59 -13 11 -15 18 -40 17 -65 -1 -78 33 -107
140 -118 54 -6 69 -4 98 13 19 12 42 21 50 21 12 0 14 41 14 270 0 292 0 292
-52 251 -14 -11 -36 -43 -49 -70 -25 -54 -39 -64 -39 -31 0 33 -28 67 -71 84
-43 17 -47 29 -24 72 24 47 19 82 -19 120 -41 41 -88 45 -132 12 -16 -12 -23
-15 -16 -8 22 25 15 94 -13 124 -13 14 -29 26 -35 26 -20 0 -9 15 20 28 32 15
60 57 60 92 0 29 -27 77 -49 90 -11 5 -37 10 -59 10 l-39 0 5 50 c6 68 -10
101 -81 165 l-61 54 -1 68 c-2 42 -11 90 -24 124 -25 66 -103 152 -146 163
-16 4 -43 20 -61 36 -18 15 -37 29 -42 31 -7 3 -9 21 -5 46 5 39 8 42 47 52
23 6 53 22 66 36 20 21 32 25 79 25 94 0 154 52 154 133 0 32 6 50 28 75 16
18 29 38 29 45 0 8 13 26 30 42 54 52 62 124 19 180 l-20 25 20 26 c15 20 21
41 21 81 0 49 -4 59 -34 89 -19 19 -41 34 -50 34 -12 0 -14 9 -9 53 5 42 12
57 37 78 17 15 48 29 70 32 50 7 83 31 124 93 56 82 75 127 74 170 -1 77 -51
135 -129 150 -37 7 -41 17 -14 36 30 21 61 81 61 118 0 20 -9 53 -20 75 -11
22 -17 47 -14 57 3 10 0 44 -7 75 -13 66 -65 127 -115 138 -68 14 -78 20 -85
51 -11 58 -25 72 -159 162 -57 38 -68 42 -124 41 -34 0 -77 -6 -96 -13 -33
-11 -37 -10 -73 21 -20 18 -43 33 -50 33 -6 0 -19 13 -28 29 -36 63 -169 92
-237 51 -39 -24 -72 -75 -72 -112 0 -20 -5 -28 -18 -28 -10 0 -40 -11 -68 -24
-27 -13 -69 -27 -93 -30 -24 -4 -57 -14 -74 -22 -28 -15 -33 -15 -61 2 -18 10
-50 18 -78 18 -38 0 -49 4 -54 19 -12 37 -66 87 -107 98 -22 6 -48 20 -58 32
-9 12 -56 40 -103 62 -70 33 -86 45 -91 67 -7 31 -51 78 -72 78 -10 0 -7 9 11
31 52 61 21 151 -72 205 -25 15 -55 38 -66 51 -12 14 -37 28 -56 32 -34 7 -34
7 -14 26 10 11 31 28 44 37 24 16 -43 17 -1181 17 -1137 1 -1207 0 -1220 -16
-22 -26 -79 -141 -79 -158 0 -16 -96 -116 -104 -108 -2 3 5 23 16 44 23 45 21
109 -6 138 -9 10 -16 30 -16 44 0 26 3 27 48 27 27 0 57 6 68 15 17 13 -15 14
-283 15 l-303 0 0 -812z m2730 754 c7 -15 19 -39 26 -54 8 -14 14 -33 14 -41
0 -9 13 -28 29 -44 31 -32 28 -48 -17 -72 -13 -7 -30 -28 -38 -46 l-14 -34
-38 25 c-29 20 -46 25 -77 21 -43 -5 -117 29 -129 58 -3 8 -21 22 -39 31 l-34
17 38 38 c22 22 48 39 59 39 11 0 32 11 47 25 57 51 75 60 117 62 38 1 45 -2
56 -25z m-1950 -276 c0 -2 -7 -9 -15 -16 -12 -10 -15 -10 -15 4 0 9 7 16 15
16 8 0 15 -2 15 -4z m-50 -91 c0 -8 -7 -15 -16 -15 -14 0 -14 3 -4 15 7 8 14
15 16 15 2 0 4 -7 4 -15z m1226 -171 c14 -4 43 -4 65 -1 l39 5 0 -37 c0 -20 7
-46 15 -57 8 -10 15 -35 15 -55 0 -21 9 -47 21 -63 11 -14 16 -26 11 -26 -6 0
-17 -2 -24 -5 -9 -4 -18 7 -27 30 -14 40 -61 75 -101 75 -15 0 -37 12 -53 30
-16 17 -34 30 -40 30 -10 0 -13 44 -8 123 1 5 15 -3 32 -17 17 -14 42 -29 55
-32z m-1686 6 c0 -11 15 -36 33 -56 26 -28 42 -37 78 -41 26 -3 55 0 68 6 38
21 25 -18 -24 -70 -25 -26 -45 -52 -45 -56 0 -4 -19 -8 -42 -8 -24 -1 -50 -4
-58 -8 -10 -5 -20 2 -32 22 -23 41 -71 64 -124 59 -24 -2 -44 -3 -44 -2 0 22
41 106 62 126 15 14 28 31 28 37 0 7 20 11 50 11 43 0 50 -3 50 -20z m730
-148 c0 -4 -20 -12 -45 -18 -40 -9 -45 -8 -43 5 5 23 88 35 88 13z m693 -92
c4 0 7 -15 7 -33 0 -18 5 -38 11 -44 8 -8 0 -12 -25 -15 -26 -3 -36 0 -36 10
0 28 -66 81 -108 88 l-40 6 41 42 42 41 50 -47 c28 -26 53 -48 58 -48z m-1646
-368 c6 -11 8 -24 5 -30 -11 -17 -44 12 -36 32 8 21 17 20 31 -2z m3993 -337
c39 -9 72 -39 65 -57 -4 -9 -23 -18 -46 -22 -60 -10 -110 -60 -116 -117 -3
-26 0 -55 6 -67 6 -12 9 -33 5 -47 -5 -20 -12 -25 -39 -25 -46 0 -93 -36 -131
-100 -18 -30 -35 -59 -37 -65 -2 -5 -22 10 -43 34 -35 38 -46 44 -89 48 -60 5
-111 -21 -121 -64 -4 -15 -25 -44 -47 -65 -34 -32 -50 -39 -96 -44 -31 -4 -65
-12 -77 -19 -18 -12 -23 -10 -48 21 -15 19 -34 34 -43 34 -9 0 -34 9 -57 21
-53 26 -81 83 -77 154 2 40 -3 58 -23 88 -53 77 -41 117 27 93 30 -10 49 -10
96 0 71 14 165 57 183 83 17 24 102 81 121 81 8 0 17 -13 20 -29 14 -70 93
-119 171 -107 22 4 50 8 61 10 11 2 31 4 44 5 26 1 116 87 170 163 l34 47 31
-24 c17 -13 42 -26 56 -30z m276 -656 c36 -35 95 -48 144 -30 29 10 36 8 61
-14 36 -29 85 -40 122 -26 26 10 39 -1 17 -14 -5 -3 -10 -31 -10 -60 0 -46 5
-60 30 -88 17 -19 30 -40 30 -46 0 -17 -61 -13 -81 5 -42 38 -140 26 -177 -21
-11 -13 -24 -20 -34 -16 -22 8 -96 99 -114 140 -7 18 -25 47 -40 65 -79 96
-85 108 -67 122 32 24 84 17 119 -17z m-3416 -389 c0 -5 -7 -7 -15 -4 -8 4
-15 8 -15 10 0 2 7 4 15 4 8 0 15 -4 15 -10z m-465 -100 c3 -5 2 -10 -4 -10
-5 0 -13 5 -16 10 -3 6 -2 10 4 10 5 0 13 -4 16 -10z m3799 -615 c-4 -8 -14
-15 -23 -15 -14 1 -13 3 3 15 25 19 27 19 20 0z m271 -803 c11 -2 29 -13 40
-23 12 -10 36 -22 55 -25 72 -14 93 -53 95 -174 0 -47 4 -95 9 -107 6 -20 4
-23 -19 -23 -32 0 -85 -49 -85 -79 0 -28 -6 -27 -43 12 -18 17 -41 37 -51 42
-18 10 -18 12 -2 42 11 21 16 57 16 107 0 104 -16 169 -49 205 -29 31 -29 47
-2 35 9 -3 25 -9 36 -12z m-3522 -524 c3 -12 4 -25 1 -30 -5 -8 -104 -12 -104
-3 0 2 10 15 23 29 29 31 73 34 80 4z m1879 -212 c-10 -11 -22 -29 -26 -40 -4
-11 -12 -16 -22 -12 -9 3 -20 6 -25 6 -5 0 -9 17 -9 38 l0 37 51 -4 51 -3 -20
-22z m1677 -218 c-27 -23 -41 -14 -27 17 9 20 13 22 30 12 18 -12 18 -12 -3
-29z m-1205 -83 c23 -24 36 -71 36 -127 0 -16 11 -38 28 -55 47 -46 53 -64 34
-95 -18 -32 -29 -34 -56 -13 -12 9 -42 15 -72 15 -45 0 -56 -4 -95 -39 l-45
-39 -30 28 c-29 25 -31 31 -26 82 3 39 -1 64 -13 87 -9 18 -15 34 -13 35 2 1
16 8 32 16 16 8 38 30 49 48 12 21 27 32 42 32 12 0 37 11 56 24 43 31 45 31
73 1z"/>
<path d="M3550 5487 c14 -6 27 -12 29 -13 1 -2 -4 -13 -13 -26 -9 -12 -16 -41
-16 -64 0 -49 33 -89 83 -100 17 -3 39 -17 50 -30 10 -13 25 -24 32 -24 8 0
21 -13 30 -30 20 -40 68 -64 111 -56 31 6 51 25 97 90 12 17 27 26 46 26 30 0
111 47 132 78 8 10 24 22 36 26 12 4 31 18 42 32 22 27 38 30 65 9 11 -8 37
-15 59 -15 47 0 97 43 97 84 l0 26 -452 -1 c-345 0 -447 -3 -428 -12z"/>
<path d="M4518 5488 c12 -6 22 -18 22 -26 0 -9 12 -29 27 -44 40 -42 97 -39
153 7 24 20 53 35 68 35 15 0 38 9 52 20 l25 20 -185 -1 c-140 0 -180 -3 -162
-11z"/>
</g>
</svg>
